<mxfile host="Electron" agent="Mozilla/5.0 (Windows NT 10.0; Win64; x64) AppleWebKit/537.36 (KHTML, like Gecko) draw.io/24.7.17 Chrome/128.0.6613.36 Electron/32.0.1 Safari/537.36" version="24.7.17">
  <diagram name="Pagina-1" id="R1t-6DlC-YC1EvwT7LQ3">
    <mxGraphModel dx="864" dy="516" grid="1" gridSize="10" guides="1" tooltips="1" connect="1" arrows="1" fold="1" page="1" pageScale="1" pageWidth="827" pageHeight="1169" math="0" shadow="0">
      <root>
        <mxCell id="0" />
        <mxCell id="1" parent="0" />
        <mxCell id="HAZ-J4RbM5ilNYv17n-R-2" value="SCHEMA LOGICO" style="text;html=1;align=center;verticalAlign=middle;whiteSpace=wrap;rounded=0;fontSize=19;" vertex="1" parent="1">
          <mxGeometry x="224" y="30" width="380" height="30" as="geometry" />
        </mxCell>
        <mxCell id="HAZ-J4RbM5ilNYv17n-R-3" value="CLIENTE(CODICE FISCALE(PK), TELEFONO, NOME, COGNOME)&#xa;AUTOMOBILE(TARGA(PK), PROPRIETARIO, MODELLO, CLIENTE(FK))&#xa;OFFICINA(NOME(PK), TELEFONO, INDIRIZZO)&#xa;INTERVENTI(DATA INIZIO, DATA FINE, ORE DI MANDODOPERA, NUMERO PROGRESSIVO, AUTOMOBILE(FK), OFFICINA(FK))&#xa;PEZZI DI RICAMBIO(CODICE(PK), NOME, COSTO UNITARIO)&#xa;ESEC LAVORI(AUTOMOBILE, OFFICINA)&#xa;UTILIZZO(INTERVENTI, PEZZI DI RICAMBIO)" style="text;html=1;align=left;verticalAlign=middle;whiteSpace=wrap;rounded=0;" vertex="1" parent="1">
          <mxGeometry x="54" y="100" width="720" height="140" as="geometry" />
        </mxCell>
      </root>
    </mxGraphModel>
  </diagram>
</mxfile>
